<?xml version="1.0" encoding="UTF-8" standalone="no"?><svg xmlns="http://www.w3.org/2000/svg" xmlns:xlink="http://www.w3.org/1999/xlink" contentStyleType="text/css" height="554px" preserveAspectRatio="none" style="width:1610px;height:554px;background:#FFFFFF;" version="1.1" viewBox="0 0 1610 554" width="1610px" zoomAndPan="magnify"><defs/><g><!--MD5=[044d80e6112339a70fe50413576e9bf7]
class Passenger--><g id="elem_Passenger"><rect codeLine="1" fill="#F1F1F1" height="145.7813" id="Passenger" rx="2.5" ry="2.5" style="stroke:#181818;stroke-width:0.5;" width="289" x="7" y="23"/><ellipse cx="110.75" cy="39" fill="#ADD1B2" rx="11" ry="11" style="stroke:#181818;stroke-width:1.0;"/><path d="M113.0938,34.6719 C112.1563,34.2344 111.5625,34.0938 110.6875,34.0938 C108.0625,34.0938 106.0625,36.1719 106.0625,38.8906 L106.0625,40.0156 C106.0625,42.5938 108.1719,44.4844 111.0625,44.4844 C112.2813,44.4844 113.4375,44.1875 114.1875,43.6406 C114.7656,43.2344 115.0938,42.7813 115.0938,42.3906 C115.0938,41.9375 114.7031,41.5469 114.2344,41.5469 C114.0156,41.5469 113.8125,41.625 113.625,41.8125 C113.1719,42.2969 113.1719,42.2969 112.9844,42.3906 C112.5625,42.6563 111.875,42.7813 111.1094,42.7813 C109.0625,42.7813 107.7656,41.6875 107.7656,39.9844 L107.7656,38.8906 C107.7656,37.1094 109.0156,35.7969 110.75,35.7969 C111.3281,35.7969 111.9375,35.9531 112.4063,36.2031 C112.8906,36.4844 113.0625,36.7031 113.1563,37.1094 C113.2188,37.5156 113.25,37.6406 113.3906,37.7656 C113.5313,37.9063 113.7656,38.0156 113.9844,38.0156 C114.25,38.0156 114.5156,37.875 114.6875,37.6563 C114.7969,37.5 114.8281,37.3125 114.8281,36.8906 L114.8281,35.4688 C114.8281,35.0313 114.8125,34.9063 114.7188,34.75 C114.5625,34.4844 114.2813,34.3438 113.9844,34.3438 C113.6875,34.3438 113.4844,34.4375 113.2656,34.75 L113.0938,34.6719 Z " fill="#000000"/><text fill="#000000" font-family="sans-serif" font-size="14" lengthAdjust="spacing" textLength="73" x="131.25" y="43.8467">Passenger</text><line style="stroke:#181818;stroke-width:0.5;" x1="8" x2="295" y1="55" y2="55"/><ellipse cx="18" cy="66" fill="none" rx="3" ry="3" style="stroke:#038048;stroke-width:1.0;"/><text fill="#000000" font-family="sans-serif" font-size="14" lengthAdjust="spacing" textLength="91" x="27" y="71.9951">age: number</text><ellipse cx="18" cy="82.2969" fill="none" rx="3" ry="3" style="stroke:#038048;stroke-width:1.0;"/><text fill="#000000" font-family="sans-serif" font-size="14" lengthAdjust="spacing" textLength="90" x="27" y="88.292">email: string</text><ellipse cx="18" cy="98.5938" fill="none" rx="3" ry="3" style="stroke:#038048;stroke-width:1.0;"/><text fill="#000000" font-family="sans-serif" font-size="14" lengthAdjust="spacing" textLength="91" x="27" y="104.5889">name: string</text><ellipse cx="18" cy="114.8906" fill="none" rx="3" ry="3" style="stroke:#038048;stroke-width:1.0;"/><text fill="#000000" font-family="sans-serif" font-size="14" lengthAdjust="spacing" textLength="152" x="27" y="120.8857">passengerKey: string</text><ellipse cx="18" cy="131.1875" fill="none" rx="3" ry="3" style="stroke:#038048;stroke-width:1.0;"/><text fill="#000000" font-family="sans-serif" font-size="14" lengthAdjust="spacing" textLength="228" x="27" y="137.1826">passengerType: PassengerType</text><line style="stroke:#181818;stroke-width:0.5;" x1="8" x2="295" y1="144.4844" y2="144.4844"/><ellipse cx="18" cy="155.4844" fill="#84BE84" rx="3" ry="3" style="stroke:#038048;stroke-width:1.0;"/><text fill="#000000" font-family="sans-serif" font-size="14" lengthAdjust="spacing" textLength="263" x="27" y="161.4795">UpdateName(newName: string): void</text></g><!--MD5=[15cc9cebbcb65728ce304095cae482ba]
class PassengerType--><g id="elem_PassengerType"><rect codeLine="9" fill="#F1F1F1" height="113.1875" id="PassengerType" rx="2.5" ry="2.5" style="stroke:#181818;stroke-width:0.5;" width="141" x="331" y="39.5"/><ellipse cx="346" cy="55.5" fill="#EB937F" rx="11" ry="11" style="stroke:#181818;stroke-width:1.0;"/><path d="M344.7969,56.375 L346.25,56.375 L346.25,56.4844 C346.25,56.8906 346.2813,57.0469 346.3594,57.2031 C346.5156,57.4531 346.7969,57.6094 347.0938,57.6094 C347.3438,57.6094 347.6094,57.4688 347.7656,57.25 C347.8906,57.0938 347.9219,56.9375 347.9219,56.4844 L347.9219,54.5625 C347.9219,54.4063 347.9219,54.3594 347.9063,54.2031 C347.8438,53.7344 347.5313,53.4219 347.0781,53.4219 C346.8281,53.4219 346.5625,53.5625 346.3906,53.7813 C346.2813,53.9531 346.25,54.1094 346.25,54.5625 L346.25,54.6875 L344.7969,54.6875 L344.7969,52.2813 L348.7813,52.2813 L348.7813,53.1406 C348.7813,53.5469 348.8125,53.7188 348.8906,53.875 C349.0625,54.125 349.3438,54.2813 349.625,54.2813 C349.8906,54.2813 350.1563,54.1406 350.3281,53.9219 C350.4375,53.75 350.4688,53.6094 350.4688,53.1406 L350.4688,50.5938 L342.8438,50.5938 C342.4063,50.5938 342.2813,50.6094 342.125,50.7031 C341.875,50.8594 341.7188,51.1563 341.7188,51.4375 C341.7188,51.7188 341.8594,51.9688 342.0781,52.1406 C342.2344,52.25 342.4219,52.2813 342.8438,52.2813 L343.0938,52.2813 L343.0938,58.7969 L342.8438,58.7969 C342.4375,58.7969 342.2813,58.8125 342.125,58.9219 C341.875,59.0938 341.7188,59.3594 341.7188,59.6563 C341.7188,59.9219 341.8594,60.1719 342.0781,60.3281 C342.2188,60.4531 342.4531,60.5 342.8438,60.5 L350.8438,60.5 L350.8438,57.9219 C350.8438,57.4844 350.8125,57.3438 350.7344,57.1875 C350.5625,56.9375 350.2813,56.7813 350,56.7813 C349.7344,56.7813 349.4688,56.8906 349.2969,57.1406 C349.1875,57.2969 349.1563,57.4375 349.1563,57.9219 L349.1563,58.7969 L344.7969,58.7969 L344.7969,56.375 Z " fill="#000000"/><text fill="#000000" font-family="sans-serif" font-size="14" lengthAdjust="spacing" textLength="109" x="360" y="60.3467">PassengerType</text><line style="stroke:#181818;stroke-width:0.5;" x1="332" x2="471" y1="71.5" y2="71.5"/><text fill="#000000" font-family="sans-serif" font-size="14" lengthAdjust="spacing" textLength="33" x="337" y="88.4951">Male</text><text fill="#000000" font-family="sans-serif" font-size="14" lengthAdjust="spacing" textLength="52" x="337" y="104.792">Female</text><text fill="#000000" font-family="sans-serif" font-size="14" lengthAdjust="spacing" textLength="43" x="337" y="121.0889">Infant</text><text fill="#000000" font-family="sans-serif" font-size="14" lengthAdjust="spacing" textLength="65" x="337" y="137.3857">Unknown</text><line style="stroke:#181818;stroke-width:0.5;" x1="332" x2="471" y1="144.6875" y2="144.6875"/></g><!--MD5=[bd6e5d4dd3d7814cbdc3148d3ed1ec4b]
class Flight--><g id="elem_Flight"><rect codeLine="15" fill="#F1F1F1" height="178.375" id="Flight" rx="2.5" ry="2.5" style="stroke:#181818;stroke-width:0.5;" width="202" x="507.5" y="7"/><ellipse cx="583.75" cy="23" fill="#ADD1B2" rx="11" ry="11" style="stroke:#181818;stroke-width:1.0;"/><path d="M586.0938,18.6719 C585.1563,18.2344 584.5625,18.0938 583.6875,18.0938 C581.0625,18.0938 579.0625,20.1719 579.0625,22.8906 L579.0625,24.0156 C579.0625,26.5938 581.1719,28.4844 584.0625,28.4844 C585.2813,28.4844 586.4375,28.1875 587.1875,27.6406 C587.7656,27.2344 588.0938,26.7813 588.0938,26.3906 C588.0938,25.9375 587.7031,25.5469 587.2344,25.5469 C587.0156,25.5469 586.8125,25.625 586.625,25.8125 C586.1719,26.2969 586.1719,26.2969 585.9844,26.3906 C585.5625,26.6563 584.875,26.7813 584.1094,26.7813 C582.0625,26.7813 580.7656,25.6875 580.7656,23.9844 L580.7656,22.8906 C580.7656,21.1094 582.0156,19.7969 583.75,19.7969 C584.3281,19.7969 584.9375,19.9531 585.4063,20.2031 C585.8906,20.4844 586.0625,20.7031 586.1563,21.1094 C586.2188,21.5156 586.25,21.6406 586.3906,21.7656 C586.5313,21.9063 586.7656,22.0156 586.9844,22.0156 C587.25,22.0156 587.5156,21.875 587.6875,21.6563 C587.7969,21.5 587.8281,21.3125 587.8281,20.8906 L587.8281,19.4688 C587.8281,19.0313 587.8125,18.9063 587.7188,18.75 C587.5625,18.4844 587.2813,18.3438 586.9844,18.3438 C586.6875,18.3438 586.4844,18.4375 586.2656,18.75 L586.0938,18.6719 Z " fill="#000000"/><text fill="#000000" font-family="sans-serif" font-size="14" lengthAdjust="spacing" textLength="41" x="604.25" y="27.8467">Flight</text><line style="stroke:#181818;stroke-width:0.5;" x1="508.5" x2="708.5" y1="39" y2="39"/><ellipse cx="518.5" cy="50" fill="none" rx="3" ry="3" style="stroke:#038048;stroke-width:1.0;"/><text fill="#000000" font-family="sans-serif" font-size="14" lengthAdjust="spacing" textLength="117" x="527.5" y="55.9951">aircraft: Aircraft</text><ellipse cx="518.5" cy="66.2969" fill="none" rx="3" ry="3" style="stroke:#038048;stroke-width:1.0;"/><text fill="#000000" font-family="sans-serif" font-size="14" lengthAdjust="spacing" textLength="120" x="527.5" y="72.292">arriveDate: Date</text><ellipse cx="518.5" cy="82.5938" fill="none" rx="3" ry="3" style="stroke:#038048;stroke-width:1.0;"/><text fill="#000000" font-family="sans-serif" font-size="14" lengthAdjust="spacing" textLength="145" x="527.5" y="88.5889">arriveStation: string</text><ellipse cx="518.5" cy="98.8906" fill="none" rx="3" ry="3" style="stroke:#038048;stroke-width:1.0;"/><text fill="#000000" font-family="sans-serif" font-size="14" lengthAdjust="spacing" textLength="151" x="527.5" y="104.8857">departureDate: Date</text><ellipse cx="518.5" cy="115.1875" fill="none" rx="3" ry="3" style="stroke:#038048;stroke-width:1.0;"/><text fill="#000000" font-family="sans-serif" font-size="14" lengthAdjust="spacing" textLength="176" x="527.5" y="121.1826">departureStation: string</text><ellipse cx="518.5" cy="131.4844" fill="none" rx="3" ry="3" style="stroke:#038048;stroke-width:1.0;"/><text fill="#000000" font-family="sans-serif" font-size="14" lengthAdjust="spacing" textLength="117" x="527.5" y="137.4795">flightKey: string</text><ellipse cx="518.5" cy="147.7813" fill="none" rx="3" ry="3" style="stroke:#038048;stroke-width:1.0;"/><text fill="#000000" font-family="sans-serif" font-size="14" lengthAdjust="spacing" textLength="107" x="527.5" y="153.7764">number: string</text><ellipse cx="518.5" cy="164.0781" fill="none" rx="3" ry="3" style="stroke:#038048;stroke-width:1.0;"/><text fill="#000000" font-family="sans-serif" font-size="14" lengthAdjust="spacing" textLength="102" x="527.5" y="170.0732">price: number</text><line style="stroke:#181818;stroke-width:0.5;" x1="508.5" x2="708.5" y1="177.375" y2="177.375"/></g><!--MD5=[308c85158ef95647680632896ffea5ec]
class Aircraft--><g id="elem_Aircraft"><rect codeLine="25" fill="#F1F1F1" height="129.4844" id="Aircraft" rx="2.5" ry="2.5" style="stroke:#181818;stroke-width:0.5;" width="89" x="745" y="31.5"/><ellipse cx="760.9" cy="47.5" fill="#EB937F" rx="11" ry="11" style="stroke:#181818;stroke-width:1.0;"/><path d="M759.6969,48.375 L761.15,48.375 L761.15,48.4844 C761.15,48.8906 761.1813,49.0469 761.2594,49.2031 C761.4156,49.4531 761.6969,49.6094 761.9938,49.6094 C762.2438,49.6094 762.5094,49.4688 762.6656,49.25 C762.7906,49.0938 762.8219,48.9375 762.8219,48.4844 L762.8219,46.5625 C762.8219,46.4063 762.8219,46.3594 762.8063,46.2031 C762.7438,45.7344 762.4313,45.4219 761.9781,45.4219 C761.7281,45.4219 761.4625,45.5625 761.2906,45.7813 C761.1813,45.9531 761.15,46.1094 761.15,46.5625 L761.15,46.6875 L759.6969,46.6875 L759.6969,44.2813 L763.6813,44.2813 L763.6813,45.1406 C763.6813,45.5469 763.7125,45.7188 763.7906,45.875 C763.9625,46.125 764.2438,46.2813 764.525,46.2813 C764.7906,46.2813 765.0563,46.1406 765.2281,45.9219 C765.3375,45.75 765.3688,45.6094 765.3688,45.1406 L765.3688,42.5938 L757.7438,42.5938 C757.3063,42.5938 757.1813,42.6094 757.025,42.7031 C756.775,42.8594 756.6188,43.1563 756.6188,43.4375 C756.6188,43.7188 756.7594,43.9688 756.9781,44.1406 C757.1344,44.25 757.3219,44.2813 757.7438,44.2813 L757.9938,44.2813 L757.9938,50.7969 L757.7438,50.7969 C757.3375,50.7969 757.1813,50.8125 757.025,50.9219 C756.775,51.0938 756.6188,51.3594 756.6188,51.6563 C756.6188,51.9219 756.7594,52.1719 756.9781,52.3281 C757.1188,52.4531 757.3531,52.5 757.7438,52.5 L765.7438,52.5 L765.7438,49.9219 C765.7438,49.4844 765.7125,49.3438 765.6344,49.1875 C765.4625,48.9375 765.1813,48.7813 764.9,48.7813 C764.6344,48.7813 764.3688,48.8906 764.1969,49.1406 C764.0875,49.2969 764.0563,49.4375 764.0563,49.9219 L764.0563,50.7969 L759.6969,50.7969 L759.6969,48.375 Z " fill="#000000"/><text fill="#000000" font-family="sans-serif" font-size="14" lengthAdjust="spacing" textLength="55" x="775.1" y="52.3467">Aircraft</text><line style="stroke:#181818;stroke-width:0.5;" x1="746" x2="833" y1="63.5" y2="63.5"/><text fill="#000000" font-family="sans-serif" font-size="14" lengthAdjust="spacing" textLength="36" x="751" y="80.4951">A320</text><text fill="#000000" font-family="sans-serif" font-size="14" lengthAdjust="spacing" textLength="36" x="751" y="96.792">A380</text><text fill="#000000" font-family="sans-serif" font-size="14" lengthAdjust="spacing" textLength="77" x="751" y="113.0889">Boeing707</text><text fill="#000000" font-family="sans-serif" font-size="14" lengthAdjust="spacing" textLength="77" x="751" y="129.3857">Boeing717</text><text fill="#000000" font-family="sans-serif" font-size="14" lengthAdjust="spacing" textLength="77" x="751" y="145.6826">Boeing737</text><line style="stroke:#181818;stroke-width:0.5;" x1="746" x2="833" y1="152.9844" y2="152.9844"/></g><!--MD5=[3414d3a9b66f2c7b4cdae254e9b09b59]
class Journey--><g id="elem_Journey"><rect codeLine="32" fill="#F1F1F1" height="162.0781" id="Journey" rx="2.5" ry="2.5" style="stroke:#181818;stroke-width:0.5;" width="202" x="50.5" y="245"/><ellipse cx="120.75" cy="261" fill="#ADD1B2" rx="11" ry="11" style="stroke:#181818;stroke-width:1.0;"/><path d="M123.0938,256.6719 C122.1563,256.2344 121.5625,256.0938 120.6875,256.0938 C118.0625,256.0938 116.0625,258.1719 116.0625,260.8906 L116.0625,262.0156 C116.0625,264.5938 118.1719,266.4844 121.0625,266.4844 C122.2813,266.4844 123.4375,266.1875 124.1875,265.6406 C124.7656,265.2344 125.0938,264.7813 125.0938,264.3906 C125.0938,263.9375 124.7031,263.5469 124.2344,263.5469 C124.0156,263.5469 123.8125,263.625 123.625,263.8125 C123.1719,264.2969 123.1719,264.2969 122.9844,264.3906 C122.5625,264.6563 121.875,264.7813 121.1094,264.7813 C119.0625,264.7813 117.7656,263.6875 117.7656,261.9844 L117.7656,260.8906 C117.7656,259.1094 119.0156,257.7969 120.75,257.7969 C121.3281,257.7969 121.9375,257.9531 122.4063,258.2031 C122.8906,258.4844 123.0625,258.7031 123.1563,259.1094 C123.2188,259.5156 123.25,259.6406 123.3906,259.7656 C123.5313,259.9063 123.7656,260.0156 123.9844,260.0156 C124.25,260.0156 124.5156,259.875 124.6875,259.6563 C124.7969,259.5 124.8281,259.3125 124.8281,258.8906 L124.8281,257.4688 C124.8281,257.0313 124.8125,256.9063 124.7188,256.75 C124.5625,256.4844 124.2813,256.3438 123.9844,256.3438 C123.6875,256.3438 123.4844,256.4375 123.2656,256.75 L123.0938,256.6719 Z " fill="#000000"/><text fill="#000000" font-family="sans-serif" font-size="14" lengthAdjust="spacing" textLength="53" x="141.25" y="265.8467">Journey</text><line style="stroke:#181818;stroke-width:0.5;" x1="51.5" x2="251.5" y1="277" y2="277"/><ellipse cx="61.5" cy="288" fill="none" rx="3" ry="3" style="stroke:#038048;stroke-width:1.0;"/><text fill="#000000" font-family="sans-serif" font-size="14" lengthAdjust="spacing" textLength="120" x="70.5" y="293.9951">arriveDate: Date</text><ellipse cx="61.5" cy="304.2969" fill="none" rx="3" ry="3" style="stroke:#038048;stroke-width:1.0;"/><text fill="#000000" font-family="sans-serif" font-size="14" lengthAdjust="spacing" textLength="145" x="70.5" y="310.292">arriveStation: string</text><ellipse cx="61.5" cy="320.5938" fill="none" rx="3" ry="3" style="stroke:#038048;stroke-width:1.0;"/><text fill="#000000" font-family="sans-serif" font-size="14" lengthAdjust="spacing" textLength="151" x="70.5" y="326.5889">departureDate: Date</text><ellipse cx="61.5" cy="336.8906" fill="none" rx="3" ry="3" style="stroke:#038048;stroke-width:1.0;"/><text fill="#000000" font-family="sans-serif" font-size="14" lengthAdjust="spacing" textLength="176" x="70.5" y="342.8857">departureStation: string</text><ellipse cx="61.5" cy="353.1875" fill="none" rx="3" ry="3" style="stroke:#038048;stroke-width:1.0;"/><text fill="#000000" font-family="sans-serif" font-size="14" lengthAdjust="spacing" textLength="133" x="70.5" y="359.1826">description: string</text><ellipse cx="61.5" cy="369.4844" fill="none" rx="3" ry="3" style="stroke:#038048;stroke-width:1.0;"/><text fill="#000000" font-family="sans-serif" font-size="14" lengthAdjust="spacing" textLength="89" x="70.5" y="375.4795">flight: Flight</text><ellipse cx="61.5" cy="385.7813" fill="none" rx="3" ry="3" style="stroke:#038048;stroke-width:1.0;"/><text fill="#000000" font-family="sans-serif" font-size="14" lengthAdjust="spacing" textLength="131" x="70.5" y="391.7764">journeyKey: string</text><line style="stroke:#181818;stroke-width:0.5;" x1="51.5" x2="251.5" y1="399.0781" y2="399.0781"/></g><!--MD5=[c0a0bb6f1600b485e55cefed6c28d42c]
class JourneyValidations--><g id="elem_JourneyValidations"><rect codeLine="41" fill="#F1F1F1" height="64.2969" id="JourneyValidations" rx="2.5" ry="2.5" style="stroke:#181818;stroke-width:0.5;" width="350" x="287.5" y="294"/><ellipse cx="392.25" cy="310" fill="#ADD1B2" rx="11" ry="11" style="stroke:#181818;stroke-width:1.0;"/><path d="M394.5938,305.6719 C393.6563,305.2344 393.0625,305.0938 392.1875,305.0938 C389.5625,305.0938 387.5625,307.1719 387.5625,309.8906 L387.5625,311.0156 C387.5625,313.5938 389.6719,315.4844 392.5625,315.4844 C393.7813,315.4844 394.9375,315.1875 395.6875,314.6406 C396.2656,314.2344 396.5938,313.7813 396.5938,313.3906 C396.5938,312.9375 396.2031,312.5469 395.7344,312.5469 C395.5156,312.5469 395.3125,312.625 395.125,312.8125 C394.6719,313.2969 394.6719,313.2969 394.4844,313.3906 C394.0625,313.6563 393.375,313.7813 392.6094,313.7813 C390.5625,313.7813 389.2656,312.6875 389.2656,310.9844 L389.2656,309.8906 C389.2656,308.1094 390.5156,306.7969 392.25,306.7969 C392.8281,306.7969 393.4375,306.9531 393.9063,307.2031 C394.3906,307.4844 394.5625,307.7031 394.6563,308.1094 C394.7188,308.5156 394.75,308.6406 394.8906,308.7656 C395.0313,308.9063 395.2656,309.0156 395.4844,309.0156 C395.75,309.0156 396.0156,308.875 396.1875,308.6563 C396.2969,308.5 396.3281,308.3125 396.3281,307.8906 L396.3281,306.4688 C396.3281,306.0313 396.3125,305.9063 396.2188,305.75 C396.0625,305.4844 395.7813,305.3438 395.4844,305.3438 C395.1875,305.3438 394.9844,305.4375 394.7656,305.75 L394.5938,305.6719 Z " fill="#000000"/><text fill="#000000" font-family="sans-serif" font-size="14" lengthAdjust="spacing" textLength="132" x="412.75" y="314.8467">JourneyValidations</text><line style="stroke:#181818;stroke-width:0.5;" x1="288.5" x2="636.5" y1="326" y2="326"/><line style="stroke:#181818;stroke-width:0.5;" x1="288.5" x2="636.5" y1="334" y2="334"/><ellipse cx="298.5" cy="345" fill="#84BE84" rx="3" ry="3" style="stroke:#038048;stroke-width:1.0;"/><text fill="#000000" font-family="sans-serif" font-size="14" lengthAdjust="spacing" text-decoration="underline" textLength="324" x="307.5" y="350.9951">JourneyValidation(journeys: Journey): boolean</text></g><!--MD5=[584bf44fac54bf66d83e175dcd9a63c3]
class PassengerValidations--><g id="elem_PassengerValidations"><rect codeLine="44" fill="#F1F1F1" height="80.5938" id="PassengerValidations" rx="2.5" ry="2.5" style="stroke:#181818;stroke-width:0.5;" width="404" x="672.5" y="285.5"/><ellipse cx="794.25" cy="301.5" fill="#ADD1B2" rx="11" ry="11" style="stroke:#181818;stroke-width:1.0;"/><path d="M796.5938,297.1719 C795.6563,296.7344 795.0625,296.5938 794.1875,296.5938 C791.5625,296.5938 789.5625,298.6719 789.5625,301.3906 L789.5625,302.5156 C789.5625,305.0938 791.6719,306.9844 794.5625,306.9844 C795.7813,306.9844 796.9375,306.6875 797.6875,306.1406 C798.2656,305.7344 798.5938,305.2813 798.5938,304.8906 C798.5938,304.4375 798.2031,304.0469 797.7344,304.0469 C797.5156,304.0469 797.3125,304.125 797.125,304.3125 C796.6719,304.7969 796.6719,304.7969 796.4844,304.8906 C796.0625,305.1563 795.375,305.2813 794.6094,305.2813 C792.5625,305.2813 791.2656,304.1875 791.2656,302.4844 L791.2656,301.3906 C791.2656,299.6094 792.5156,298.2969 794.25,298.2969 C794.8281,298.2969 795.4375,298.4531 795.9063,298.7031 C796.3906,298.9844 796.5625,299.2031 796.6563,299.6094 C796.7188,300.0156 796.75,300.1406 796.8906,300.2656 C797.0313,300.4063 797.2656,300.5156 797.4844,300.5156 C797.75,300.5156 798.0156,300.375 798.1875,300.1563 C798.2969,300 798.3281,299.8125 798.3281,299.3906 L798.3281,297.9688 C798.3281,297.5313 798.3125,297.4063 798.2188,297.25 C798.0625,296.9844 797.7813,296.8438 797.4844,296.8438 C797.1875,296.8438 796.9844,296.9375 796.7656,297.25 L796.5938,297.1719 Z " fill="#000000"/><text fill="#000000" font-family="sans-serif" font-size="14" lengthAdjust="spacing" textLength="152" x="814.75" y="306.3467">PassengerValidations</text><line style="stroke:#181818;stroke-width:0.5;" x1="673.5" x2="1075.5" y1="317.5" y2="317.5"/><line style="stroke:#181818;stroke-width:0.5;" x1="673.5" x2="1075.5" y1="325.5" y2="325.5"/><ellipse cx="683.5" cy="336.5" fill="#84BE84" rx="3" ry="3" style="stroke:#038048;stroke-width:1.0;"/><text fill="#000000" font-family="sans-serif" font-size="14" lengthAdjust="spacing" text-decoration="underline" textLength="378" x="692.5" y="342.4951">PassengerValidation(passenger: Passenger): boolean</text><ellipse cx="683.5" cy="352.7969" fill="#84BE84" rx="3" ry="3" style="stroke:#038048;stroke-width:1.0;"/><text fill="#000000" font-family="sans-serif" font-size="14" lengthAdjust="spacing" text-decoration="underline" textLength="354" x="692.5" y="358.792">PassengerNameValidation(name: string): boolean</text></g><!--MD5=[c6c2aa411a70f0170997fbec83374a43]
class Booking--><g id="elem_Booking"><rect codeLine="48" fill="#F1F1F1" height="145.7813" id="Booking" rx="2.5" ry="2.5" style="stroke:#181818;stroke-width:0.5;" width="492" x="1111.5" y="253"/><ellipse cx="1323.75" cy="269" fill="#ADD1B2" rx="11" ry="11" style="stroke:#181818;stroke-width:1.0;"/><path d="M1326.0938,264.6719 C1325.1563,264.2344 1324.5625,264.0938 1323.6875,264.0938 C1321.0625,264.0938 1319.0625,266.1719 1319.0625,268.8906 L1319.0625,270.0156 C1319.0625,272.5938 1321.1719,274.4844 1324.0625,274.4844 C1325.2813,274.4844 1326.4375,274.1875 1327.1875,273.6406 C1327.7656,273.2344 1328.0938,272.7813 1328.0938,272.3906 C1328.0938,271.9375 1327.7031,271.5469 1327.2344,271.5469 C1327.0156,271.5469 1326.8125,271.625 1326.625,271.8125 C1326.1719,272.2969 1326.1719,272.2969 1325.9844,272.3906 C1325.5625,272.6563 1324.875,272.7813 1324.1094,272.7813 C1322.0625,272.7813 1320.7656,271.6875 1320.7656,269.9844 L1320.7656,268.8906 C1320.7656,267.1094 1322.0156,265.7969 1323.75,265.7969 C1324.3281,265.7969 1324.9375,265.9531 1325.4063,266.2031 C1325.8906,266.4844 1326.0625,266.7031 1326.1563,267.1094 C1326.2188,267.5156 1326.25,267.6406 1326.3906,267.7656 C1326.5313,267.9063 1326.7656,268.0156 1326.9844,268.0156 C1327.25,268.0156 1327.5156,267.875 1327.6875,267.6563 C1327.7969,267.5 1327.8281,267.3125 1327.8281,266.8906 L1327.8281,265.4688 C1327.8281,265.0313 1327.8125,264.9063 1327.7188,264.75 C1327.5625,264.4844 1327.2813,264.3438 1326.9844,264.3438 C1326.6875,264.3438 1326.4844,264.4375 1326.2656,264.75 L1326.0938,264.6719 Z " fill="#000000"/><text fill="#000000" font-family="sans-serif" font-size="14" lengthAdjust="spacing" textLength="59" x="1344.25" y="273.8467">Booking</text><line style="stroke:#181818;stroke-width:0.5;" x1="1112.5" x2="1602.5" y1="285" y2="285"/><ellipse cx="1122.5" cy="296" fill="none" rx="3" ry="3" style="stroke:#038048;stroke-width:1.0;"/><text fill="#000000" font-family="sans-serif" font-size="14" lengthAdjust="spacing" textLength="64" x="1131.5" y="301.9951">id: string</text><ellipse cx="1122.5" cy="312.2969" fill="none" rx="3" ry="3" style="stroke:#038048;stroke-width:1.0;"/><text fill="#000000" font-family="sans-serif" font-size="14" lengthAdjust="spacing" textLength="173" x="1131.5" y="318.292">passengers: Passenger[]</text><ellipse cx="1122.5" cy="328.5938" fill="none" rx="3" ry="3" style="stroke:#038048;stroke-width:1.0;"/><text fill="#000000" font-family="sans-serif" font-size="14" lengthAdjust="spacing" textLength="132" x="1131.5" y="334.5889">journeys: Journey[]</text><line style="stroke:#181818;stroke-width:0.5;" x1="1112.5" x2="1602.5" y1="341.8906" y2="341.8906"/><ellipse cx="1122.5" cy="352.8906" fill="#84BE84" rx="3" ry="3" style="stroke:#038048;stroke-width:1.0;"/><text fill="#000000" font-family="sans-serif" font-size="14" lengthAdjust="spacing" textLength="287" x="1131.5" y="358.8857">SelectJourneys(journeys: Journey[]): void</text><ellipse cx="1122.5" cy="369.1875" fill="#84BE84" rx="3" ry="3" style="stroke:#038048;stroke-width:1.0;"/><text fill="#000000" font-family="sans-serif" font-size="14" lengthAdjust="spacing" textLength="437" x="1131.5" y="375.1826">AddPassenger(BookingId: string, passenger: Passenger): void</text><ellipse cx="1122.5" cy="385.4844" fill="#84BE84" rx="3" ry="3" style="stroke:#038048;stroke-width:1.0;"/><text fill="#000000" font-family="sans-serif" font-size="14" lengthAdjust="spacing" textLength="466" x="1131.5" y="391.4795">UpdatePassengerName(passengerKey: string, name: string): void</text></g><!--MD5=[03c1a03c814b22a212e9c1fed111c626]
class FlightBuilder--><g id="elem_FlightBuilder"><rect codeLine="56" fill="#F1F1F1" height="64.2969" id="FlightBuilder" rx="2.5" ry="2.5" style="stroke:#181818;stroke-width:0.5;" width="123" x="90" y="475.5"/><ellipse cx="105" cy="491.5" fill="#ADD1B2" rx="11" ry="11" style="stroke:#181818;stroke-width:1.0;"/><path d="M107.3438,487.1719 C106.4063,486.7344 105.8125,486.5938 104.9375,486.5938 C102.3125,486.5938 100.3125,488.6719 100.3125,491.3906 L100.3125,492.5156 C100.3125,495.0938 102.4219,496.9844 105.3125,496.9844 C106.5313,496.9844 107.6875,496.6875 108.4375,496.1406 C109.0156,495.7344 109.3438,495.2813 109.3438,494.8906 C109.3438,494.4375 108.9531,494.0469 108.4844,494.0469 C108.2656,494.0469 108.0625,494.125 107.875,494.3125 C107.4219,494.7969 107.4219,494.7969 107.2344,494.8906 C106.8125,495.1563 106.125,495.2813 105.3594,495.2813 C103.3125,495.2813 102.0156,494.1875 102.0156,492.4844 L102.0156,491.3906 C102.0156,489.6094 103.2656,488.2969 105,488.2969 C105.5781,488.2969 106.1875,488.4531 106.6563,488.7031 C107.1406,488.9844 107.3125,489.2031 107.4063,489.6094 C107.4688,490.0156 107.5,490.1406 107.6406,490.2656 C107.7813,490.4063 108.0156,490.5156 108.2344,490.5156 C108.5,490.5156 108.7656,490.375 108.9375,490.1563 C109.0469,490 109.0781,489.8125 109.0781,489.3906 L109.0781,487.9688 C109.0781,487.5313 109.0625,487.4063 108.9688,487.25 C108.8125,486.9844 108.5313,486.8438 108.2344,486.8438 C107.9375,486.8438 107.7344,486.9375 107.5156,487.25 L107.3438,487.1719 Z " fill="#000000"/><text fill="#000000" font-family="sans-serif" font-size="14" lengthAdjust="spacing" textLength="91" x="119" y="496.3467">FlightBuilder</text><line style="stroke:#181818;stroke-width:0.5;" x1="91" x2="212" y1="507.5" y2="507.5"/><line style="stroke:#181818;stroke-width:0.5;" x1="91" x2="212" y1="515.5" y2="515.5"/><ellipse cx="101" cy="526.5" fill="#84BE84" rx="3" ry="3" style="stroke:#038048;stroke-width:1.0;"/><text fill="#000000" font-family="sans-serif" font-size="14" lengthAdjust="spacing" textLength="95" x="110" y="532.4951">Build(): Flight</text></g><!--MD5=[c567767cbdbd7211e43f09194cdecb37]
class JourneysBuilder--><g id="elem_JourneysBuilder"><rect codeLine="59" fill="#F1F1F1" height="80.5938" id="JourneysBuilder" rx="2.5" ry="2.5" style="stroke:#181818;stroke-width:0.5;" width="203" x="248" y="467"/><ellipse cx="290.45" cy="483" fill="#ADD1B2" rx="11" ry="11" style="stroke:#181818;stroke-width:1.0;"/><path d="M292.7938,478.6719 C291.8563,478.2344 291.2625,478.0938 290.3875,478.0938 C287.7625,478.0938 285.7625,480.1719 285.7625,482.8906 L285.7625,484.0156 C285.7625,486.5938 287.8719,488.4844 290.7625,488.4844 C291.9813,488.4844 293.1375,488.1875 293.8875,487.6406 C294.4656,487.2344 294.7938,486.7813 294.7938,486.3906 C294.7938,485.9375 294.4031,485.5469 293.9344,485.5469 C293.7156,485.5469 293.5125,485.625 293.325,485.8125 C292.8719,486.2969 292.8719,486.2969 292.6844,486.3906 C292.2625,486.6563 291.575,486.7813 290.8094,486.7813 C288.7625,486.7813 287.4656,485.6875 287.4656,483.9844 L287.4656,482.8906 C287.4656,481.1094 288.7156,479.7969 290.45,479.7969 C291.0281,479.7969 291.6375,479.9531 292.1063,480.2031 C292.5906,480.4844 292.7625,480.7031 292.8563,481.1094 C292.9188,481.5156 292.95,481.6406 293.0906,481.7656 C293.2313,481.9063 293.4656,482.0156 293.6844,482.0156 C293.95,482.0156 294.2156,481.875 294.3875,481.6563 C294.4969,481.5 294.5281,481.3125 294.5281,480.8906 L294.5281,479.4688 C294.5281,479.0313 294.5125,478.9063 294.4188,478.75 C294.2625,478.4844 293.9813,478.3438 293.6844,478.3438 C293.3875,478.3438 293.1844,478.4375 292.9656,478.75 L292.7938,478.6719 Z " fill="#000000"/><text fill="#000000" font-family="sans-serif" font-size="14" lengthAdjust="spacing" textLength="110" x="310.55" y="487.8467">JourneysBuilder</text><line style="stroke:#181818;stroke-width:0.5;" x1="249" x2="450" y1="499" y2="499"/><line style="stroke:#181818;stroke-width:0.5;" x1="249" x2="450" y1="507" y2="507"/><ellipse cx="259" cy="518" fill="#84BE84" rx="3" ry="3" style="stroke:#038048;stroke-width:1.0;"/><text fill="#000000" font-family="sans-serif" font-size="14" lengthAdjust="spacing" textLength="107" x="268" y="523.9951">Build(): Journey</text><ellipse cx="259" cy="534.2969" fill="#84BE84" rx="3" ry="3" style="stroke:#038048;stroke-width:1.0;"/><text fill="#000000" font-family="sans-serif" font-size="14" lengthAdjust="spacing" textLength="177" x="268" y="540.292">BuildJourneys(): Journey[]</text></g><!--MD5=[ab661cb3607b2680678736075893d47c]
class PassengerBuilder--><g id="elem_PassengerBuilder"><rect codeLine="63" fill="#F1F1F1" height="64.2969" id="PassengerBuilder" rx="2.5" ry="2.5" style="stroke:#181818;stroke-width:0.5;" width="240" x="486.5" y="475.5"/><ellipse cx="540.75" cy="491.5" fill="#ADD1B2" rx="11" ry="11" style="stroke:#181818;stroke-width:1.0;"/><path d="M543.0938,487.1719 C542.1563,486.7344 541.5625,486.5938 540.6875,486.5938 C538.0625,486.5938 536.0625,488.6719 536.0625,491.3906 L536.0625,492.5156 C536.0625,495.0938 538.1719,496.9844 541.0625,496.9844 C542.2813,496.9844 543.4375,496.6875 544.1875,496.1406 C544.7656,495.7344 545.0938,495.2813 545.0938,494.8906 C545.0938,494.4375 544.7031,494.0469 544.2344,494.0469 C544.0156,494.0469 543.8125,494.125 543.625,494.3125 C543.1719,494.7969 543.1719,494.7969 542.9844,494.8906 C542.5625,495.1563 541.875,495.2813 541.1094,495.2813 C539.0625,495.2813 537.7656,494.1875 537.7656,492.4844 L537.7656,491.3906 C537.7656,489.6094 539.0156,488.2969 540.75,488.2969 C541.3281,488.2969 541.9375,488.4531 542.4063,488.7031 C542.8906,488.9844 543.0625,489.2031 543.1563,489.6094 C543.2188,490.0156 543.25,490.1406 543.3906,490.2656 C543.5313,490.4063 543.7656,490.5156 543.9844,490.5156 C544.25,490.5156 544.5156,490.375 544.6875,490.1563 C544.7969,490 544.8281,489.8125 544.8281,489.3906 L544.8281,487.9688 C544.8281,487.5313 544.8125,487.4063 544.7188,487.25 C544.5625,486.9844 544.2813,486.8438 543.9844,486.8438 C543.6875,486.8438 543.4844,486.9375 543.2656,487.25 L543.0938,487.1719 Z " fill="#000000"/><text fill="#000000" font-family="sans-serif" font-size="14" lengthAdjust="spacing" textLength="123" x="561.25" y="496.3467">PassengerBuilder</text><line style="stroke:#181818;stroke-width:0.5;" x1="487.5" x2="725.5" y1="507.5" y2="507.5"/><line style="stroke:#181818;stroke-width:0.5;" x1="487.5" x2="725.5" y1="515.5" y2="515.5"/><ellipse cx="497.5" cy="526.5" fill="#84BE84" rx="3" ry="3" style="stroke:#038048;stroke-width:1.0;"/><text fill="#000000" font-family="sans-serif" font-size="14" lengthAdjust="spacing" textLength="214" x="506.5" y="532.4951">CreatePassenger(): Passenger</text></g><!--MD5=[73851cb3aeecda88940f830912095f28]
@startuml
class Passenger {
    +age: number
    +email: string
    +name: string
    +passengerKey: string
    +passengerType: PassengerType
    +UpdateName(newName: string): void
}
enum PassengerType {
    Male
    Female
    Infant
    Unknown
}
class Flight {
    +aircraft: Aircraft
    +arriveDate: Date
    +arriveStation: string
    +departureDate: Date
    +departureStation: string
    +flightKey: string
    +number: string
    +price: number
}
enum Aircraft {
    A320
    A380
    Boeing707
    Boeing717
    Boeing737
}
class Journey {
    +arriveDate: Date
    +arriveStation: string
    +departureDate: Date
    +departureStation: string
    +description: string
    +flight: Flight
    +journeyKey: string
}
class JourneyValidations {
    +{static} JourneyValidation(journeys: Journey): boolean
}
class PassengerValidations {
    +{static} PassengerValidation(passenger: Passenger): boolean
    +{static} PassengerNameValidation(name: string): boolean
}
class Booking {
    +id: string
    +passengers: Passenger[]
    +journeys: Journey[]
    +SelectJourneys(journeys: Journey[]): void
    +AddPassenger(BookingId: string, passenger: Passenger): void
    +UpdatePassengerName(passengerKey: string, name: string): void
}
class FlightBuilder {
    +Build(): Flight
}
class JourneysBuilder {
    +Build(): Journey
    +BuildJourneys(): Journey[]
}
class PassengerBuilder {
    +CreatePassenger(): Passenger
}
@enduml

PlantUML version 1.2022.6beta5(Unknown compile time)
(GPL source distribution)
Java Runtime: Java(TM) SE Runtime Environment
JVM: Java HotSpot(TM) 64-Bit Server VM
Default Encoding: UTF-8
Language: en
Country: US
--></g></svg>